# xmcd
#
# Track frame offsets:
#	150
#	11377
#	21715
#	34905
#	43595
#	54687
#	63902
#	73145
#	106455
#	118625
#	128997
#	139307
#	153917
#	162825
#	179095
#	188505
#	198122
#
# Disc length: 2987 seconds
#
# Revision: 0
# Processed by: cddbd v1.5.1PL2 Copyright (c) Steve Scherf et al.
# Submitted via: dBpowerAMP V4.0
#
DISCID=f40ba911
DTITLE=Loretta Lynn - An Evening With Loretta Lynn
DYEAR=1994
DGENRE=Country
TTITLE0=Hey Loretta
TTITLE1=You're Looking At Country
TTITLE2=Let Your Love Flow
TTITLE3=We've Come A Long Way Baby
TTITLE4=Spring Fever
TTITLE5=Your Squaw In On The Warpath
TTITLE6=Fist City
TTITLE7=Medley: I Fall To Pieces, Walking AFter Midnight, Crazy, Back In Baby's Arms, She's Got You
TTITLE8=Me And Bobby McGee
TTITLE9=Somebody Somewhere (Don't Know What He's Missing Tonight)
TTITLE10=Out Of My Mind And Back In My Bed
TTITLE11=Coal Miner's Daughter
TTITLE12=They Don't Make "em Like My Daddy
TTITLE13=Medley: One's On The Way, The Pill
TTITLE14=Y'all Come
TTITLE15=You Ain't Wonman Enough
TTITLE16=Medley: Jambalaya, Is It True?, My Whole World Is Falling Down, Sweet Nothin's, The End Of The World, All Alone Am I (Brenda Lee)
EXTD=With special Guest Brenda Lee
EXTT0=
EXTT1=
EXTT2=
EXTT3=
EXTT4=
EXTT5=
EXTT6=
EXTT7=
EXTT8=
EXTT9=
EXTT10=
EXTT11=
EXTT12=
EXTT13=
EXTT14=
EXTT15=
EXTT16=
PLAYORDER=
